<?xml version="1.0" encoding="utf-8"?>
<!-- Generator: Adobe Illustrator 15.0.0, SVG Export Plug-In . SVG Version: 6.00 Build 0)  -->
<!DOCTYPE svg PUBLIC "-//W3C//DTD SVG 1.1//EN" "http://www.w3.org/Graphics/SVG/1.1/DTD/svg11.dtd">
<svg version="1.1" id="blindchris" xmlns="http://www.w3.org/2000/svg" xmlns:xlink="http://www.w3.org/1999/xlink" x="0px" y="0px"
	 width="1270px" height="385px" viewBox="0 0 1270 385" enable-background="new 0 0 1270 385" xml:space="preserve">
<g>
	<g>
		<polygon fill="#FFFFFF" points="869.101,171.12 871.195,169.563 871.271,168.784 870.374,168.007 867.307,169.563 		"/>
		<path fill="#FFFFFF" d="M1098.756,309.684c-9.015,1.039-14.299,2.076-15.858,3.113c-18.674,2.077-32.512,4.412-41.514,7.007h-8.75
			c-10.859,0-21.332,1.04-31.414,3.113l-3.814-0.778h-0.973c-19.81,2.077-30.332,3.634-31.564,4.67h-2.917
			c-4.702,0-7.217-0.777-7.552-2.335l-41.884,0.779l-22.286-0.779l-6.883,0.779c-13.359-2.595-24.08-5.708-32.152-9.343
			c-12.603-2.073-22.724-4.67-30.359-7.783c-7.875-4.021-16.002-7.134-24.375-9.342c-5.834,0-14.982-2.594-27.442-7.784
			c-6.404-7.523-12.758-12.194-19.062-14.012l-22.129-12.456h-0.973l-1.048,0.779l-6.278-5.449
			c-8.369-8.952-15.269-18.032-20.697-27.246c-3.612-2.853-5.255-5.966-4.928-9.342h0.971l-0.52-4.671l2.178-12.454l0.754-7.785
			c0.377-3.892,3.021-7.784,7.937-11.676l1.424-4.67c1.085-4.541,4.208-9.99,9.361-16.348l16.468-19.461
			c4.861,0,9.203-4.671,13.024-14.012c9.178-7.785,13.82-12.193,13.921-13.234l19.904-14.79l1.795,1.557l-0.075,0.779l-1.5,5.449
			l0.896,0.778l-1.048,0.778l-0.15,1.557l0.897,0.778l3.142-2.335l0.302-3.114l-0.218-7.784l2.992-0.778
			c6.294-3.114,22.629-7.785,48.998-14.012c5.67,0,10.108,1.04,13.31,3.114l-6.963,11.676c-4.007,2.855-9.019,7.784-15.045,14.791
			c-2.384,4.543-11.665,13.364-27.841,26.467c-1.45,4.932-15.945,17.387-43.48,37.365l-0.076,0.779
			c11.395-3.892,28.856-16.865,52.383-38.923c11.573-9.08,20.08-16.605,25.52-22.574c25.508-22.445,38.556-36.715,39.146-42.815
			l0.227-2.335c-3.701-3.63-10.008-5.449-18.918-5.449c-27.387,0-55.965,7.268-85.727,21.796c-5.851,5.191-9.345,7.785-10.477,7.785
			c-10.338,6.358-16.699,11.808-19.083,16.347l-24.548,22.575c-8.369,6.1-12.71,10.771-13.023,14.012
			c-6.361,5.449-13.875,16.089-22.536,31.917l-5.396,15.569l-0.904,9.341c-1.357,14.012,2.747,25.171,12.315,33.474
			c4.096,6.228,8.454,11.418,13.077,15.568c13.236,15.569,22.206,23.354,26.907,23.354c-0.201,2.076,0.345,3.113,1.644,3.113
			l0.896,0.779c1.781,0,6.739,2.336,14.878,7.006l44.785,19.461c6.991,1.429,10.432,2.725,10.318,3.892l34.022,10.121
			c9.459,2.725,22.196,5.06,38.214,7.005H889.4l22.136,2.336l13.687-0.778l26.177,0.778c19.483-0.39,29.281-1.167,29.395-2.336
			l62.082-8.563h6.807l13.016-3.892h8.751l1.048-0.778c16.817-2.983,26.142-5.578,27.977-7.785L1098.756,309.684z"/>
		<polygon fill="#FFFFFF" points="848.585,202.257 848.66,201.479 845.518,203.814 846.49,203.814 		"/>
		<polygon fill="#FFFFFF" points="735.047,210.042 737.143,208.485 737.218,207.706 734.301,207.706 734.149,209.264 		"/>
		<polygon fill="#FFFFFF" points="742.689,191.359 743.661,191.359 752.043,185.132 752.118,184.354 751.146,184.354 
			742.766,190.581 		"/>
		<path fill="#FFFFFF" d="M835.116,210.82h0.973l6.285-4.67l0.075-0.778c-4.739,2.076-7.157,3.633-7.258,4.67L835.116,210.82z"/>
		<path fill="#FFFFFF" d="M806.311,227.168h1.944l4.19-3.114l0.075-0.778l-0.896-0.777
			C809.265,223.406,807.495,224.964,806.311,227.168z"/>
		<path fill="#FFFFFF" d="M1010.374,31h1.944l2.615,3.113l-4.718,8.563c1.618,0,2.716,2.077,3.286,6.228l-0.15,1.557h-3.89
			l-0.227,2.336c-2.32,3.892-3.669,7.784-4.046,11.676c-1.622,0-4.342,4.671-8.163,14.012c-2.594,0-7.086,6.228-13.476,18.683
			c-2.984,2.335-8.846,9.342-17.592,21.018c-7.535,4.154-11.448,7.785-11.75,10.898c-6.671,3.634-12.262,7.785-16.762,12.455
			c-3.244,0-16.662,8.046-40.255,24.132c-17.371,8.694-27.672,14.663-30.902,17.905c-0.302,3.113-2.547,6.228-6.737,9.341
			l-8.088,13.234l-16.618,21.018h0.973c2.431,0,10.61-4.15,24.539-12.455c4.338-1.296,15.213-6.486,32.621-15.569
			c4.647-1.167,12.081-4.281,22.294-9.34c1.781,0,5.821-1.557,12.12-4.671h0.972l1.794,1.557
			c-5.606,9.34-15.412,20.239-29.417,32.694c-1.458,0-5.376,3.635-11.75,10.898c-8.519,4.282-22.139,14.401-40.858,30.36
			c-4.978,4.542-9.344,9.472-13.099,14.79l-9.654,9.341l-0.452,4.671c7.292,0,25.948-11.935,55.97-35.808
			c0.15-1.558,1.919-3.115,5.313-4.671l-0.075,0.778c-7.648,8.694-15.082,15.179-22.302,19.461
			c-0.478,4.932-10.283,12.455-29.409,22.575l-13.764,1.557h-4.861c-1.299,0-1.818-1.295-1.567-3.893l-3.513-3.892l3.746-8.563
			c1.944,0,3.117-2.074,3.52-6.228c1.295,0,4.514-3.115,9.655-9.343c18.744-14.528,35.306-24.909,49.684-31.138l0.15-1.557
			c7.715-2.725,14.676-7.654,20.877-14.79l12.874-12.456l0.075-0.777l-62.475,32.694l-53.874,34.251l-5.013,1.558l0.377-3.892
			c0.139-1.427,5.327-8.174,15.572-20.24c0.288-2.982,5.879-10.509,16.77-22.574c0.301-3.115,4.341-8.044,12.127-14.792
			c4.341-4.67,6.588-7.783,6.738-9.341l-2.54-3.892c-17.56,7.267-33.618,12.454-48.178,15.568
			c-7.966,3.634-14.625,5.449-19.973,5.449c-0.139,1.429-6.147,3.245-18.028,5.449c-1.111,1.429-5.499,3.245-13.167,5.449
			c-3.852,2.986-11.336,6.616-22.445,10.898c-1.048,2.466-5.787,4.543-14.215,6.228l-2.095,1.557l0.075-0.778
			c0.101-1.037,4.215-3.373,12.345-7.006l34.791-17.905l19.002-5.448c0.075-0.779,4.39-1.815,12.94-3.114
			c1.822-2.074,12.169-5.188,31.045-9.342c12.328-5.188,20.036-7.783,23.116-7.783c0.138-1.426,6.247-4.282,18.33-8.563
			c0.251-2.593,3.917-7.005,11.004-13.233c0.138-1.426,5.477-6.355,16.016-14.791l35.777-38.145c1.781,0,3.252-1.815,4.417-5.449
			c2.469-0.39,6.109-4.54,10.929-12.455c3.415-1.816,7.358-5.708,11.825-11.677h0.972l0.897,0.778h0.972
			c1.534-2.463,5.452-6.097,11.751-10.898l0.15-1.558c3.517-1.167,9.978-7.653,19.385-19.46c1.459,0,2.93-1.816,4.417-5.449
			c1.458,0,6.771-4.671,15.94-14.012L1010.374,31z M993.604,53.575c-12.55,10.77-19.36,17.515-20.433,20.24
			c-3.394,1.557-5.213,3.633-5.465,6.228c-8.107,6.748-19.209,17.646-33.306,32.695c-4.777,2.466-7.346,5.58-7.71,9.341
			c-5.214,3.634-12.748,11.16-22.604,22.575c-12.01,8.563-21.292,17.388-27.841,26.467h0.972
			c11.734-7.395,17.646-11.545,17.735-12.456c7.295-6.744,16.996-13.233,29.107-19.46c21.184-11.288,32.087-20.109,32.702-26.467
			c6.047-3.893,11.038-8.563,14.969-14.012c10.979-12.972,17.021-25.169,18.126-36.587l0.227-2.335l4.491-6.228H993.604z
			 M896.612,241.958l-0.075,0.779l-4.19,3.113l-0.896-0.778l0.075-0.778L896.612,241.958z"/>
		<path fill="#FFFFFF" d="M956.139,180.461h1.944c10.491,5.449,15.424,11.418,14.796,17.904l-0.302,3.113
			c17.304-4.67,29.847-7.005,37.625-7.005h3.89l10.468,2.335l3.144-2.335l-0.075,0.778l-2.096,1.557l2.54,3.893l-0.376,3.892
			c-2.896,3.113-5.641,4.671-8.23,4.671l0.075-0.778l2.17-2.335c0.402-4.151-6.202-6.228-19.815-6.228
			c-17.178,0-35.708,10.64-55.592,31.916c14.771-3.631,27.314-5.967,37.624-7.007l-0.15,1.558
			c-30.869,5.838-47.577,11.028-50.121,15.568c-20.094,15.052-35.079,22.575-44.966,22.575l-1.793-1.557l0.075-0.778
			c12.81-10.12,23.16-16.606,31.052-19.461c10.657-2.983,20.036-9.47,28.137-19.462l7.86-10.898h-0.973
			c-10.607-4.28-15.587-9.729-14.946-16.348C940.565,185.652,946.575,180.461,956.139,180.461z M896.997,259.084h1.944
			c8.456-3.63,16.059-8.563,22.821-14.79C916.898,245.981,908.646,250.911,896.997,259.084z M928.018,179.683l0.897,0.779
			l-0.075,0.778l-1.049,0.779h-1.944l0.076-0.779L928.018,179.683z M944.704,168.007l0.897,0.777l-0.075,0.779l-4.115,2.336h-1.944
			L944.704,168.007z M946.777,196.809c5.34,6.747,10.524,10.119,15.55,10.119l3.219-3.113l0.828-8.563
			c0.214-2.204-3.076-5.06-9.866-8.563C950.586,187.599,947.343,190.971,946.777,196.809z M976.111,175.012l0.897,0.778
			l-0.075,0.779l-1.049,0.778h-0.972l-0.896-0.778l0.075-0.779l1.048-0.778H976.111z M991.856,223.275h2.918l-0.151,1.557h-2.917
			L991.856,223.275z M1017.362,220.94h4.861l-0.15,1.558h-3.889l-7.93,1.556h-5.834l0.151-1.556l4.937-0.779l-0.075,0.779
			L1017.362,220.94z M1038.979,218.604l0.896,0.778l-0.075,0.779l-1.047,0.778h-2.917l0.15-1.558L1038.979,218.604z"/>
		<path fill="#FFFFFF" d="M1101.197,182.019h0.973l-0.15,1.557c-8.046,6.099-15.232,13.364-21.556,21.796
			c-2.595,0-4.015,1.298-4.266,3.892c-10.229,6.878-17.387,13.884-21.48,21.018c-5.163,3.114-10.627,9.342-16.393,18.684
			c-4.492,2.854-7.786,6.748-9.882,11.677c34.9-14.013,56.319-21.019,64.262-21.019l-0.075,0.778
			c3.016-1.036,7.278-1.557,12.79-1.557h1.944l6.73,0.778l-0.15,1.557h-5.834c-26.092,0-58.533,10.381-97.325,31.138l0.075-0.777
			c3.809-9.211,15.76-25.559,35.861-49.042c5.698-3.632,11.858-10.379,18.487-20.241l1.048-0.778l0.075-0.777l-28.054,8.563
			l0.151-1.558l31.271-11.677L1101.197,182.019z M1156.738,120.521c-0.578,5.969-10.058,13.495-28.438,22.574
			c-13.033,5.711-22.261,10.64-27.683,14.791l-6.286,4.671l0.075-0.778c7.772-11.677,22.317-24.649,43.631-38.923L1156.738,120.521z
			"/>
		<polygon fill="#FFFFFF" points="1087.915,222.303 1092.852,221.524 1093.002,219.968 1088.065,220.746 		"/>
		<path fill="#FFFFFF" d="M1197.94,210.626l-0.896-0.778l-7.107,3.113h-0.973l0.075-0.778l-17.26-22.575l7.333-5.449
			c10.837-6.485,20.064-14.79,27.691-24.91l-2.691-2.336h-4.861c-2.594,0-8.653,2.336-18.179,7.006
			c-13.184,8.952-20.144,17.256-20.885,24.911l0.595,3.892c-8.93,5.19-19.13,10.12-30.6,14.79l-28.203,10.12l5.908-0.778
			c20.606-5.318,38.786-12.324,54.538-21.019l2.465,4.671c9.53,7.006,14.585,11.677,15.173,14.013
			c-0.102,1.04-1.124,1.557-3.068,1.557l-0.15,1.557l2.992-0.778c2.364,2.335,3.387,5.19,3.06,8.563
			c-1.042,10.77-6.309,18.293-15.797,22.575c-12.198,8.823-22.026,13.232-29.478,13.232h-9.723c-2.594,0-5.758-4.15-9.489-12.454
			l0.151-1.558c0.799-4.929,8.184-10.898,22.15-17.904h-0.973c-6.319,0-15.274,5.449-26.861,16.348l-0.527,5.449
			c-1.005,10.381,7.565,15.568,25.716,15.568c10.41-2.073,21.457-5.708,33.142-10.898c14.578-9.988,22.188-18.293,22.828-24.909
			c0.829-8.563-0.563-14.271-4.175-17.126l24.909-6.229l0.15-1.557l-16.009,4.671H1197.94z M1177.477,170.926
			c10.888-7.006,18.367-10.637,22.445-10.898l-0.075,0.779c-6.079,10.898-15.982,19.461-29.71,25.688
			C1170.802,179.62,1173.249,174.429,1177.477,170.926z"/>
		<polygon fill="#FFFFFF" points="1159.042,220.746 1158.892,222.303 1160.836,222.303 1162.931,220.746 		"/>
	</g>
	<g>
		<polygon fill="#FFFFFF" points="476.776,276.245 478.932,274.844 477.495,273.442 472.465,273.442 471.747,274.143 
			473.184,275.544 475.339,275.544 476.058,274.844 476.058,276.245 		"/>
		<path fill="#FFFFFF" d="M660.013,171.141c-2.397-3.969-3.593-8.173-3.593-12.612c0-4.319-1.438-8.058-4.312-11.211
			c0-4.204-0.719-6.306-2.156-6.306c-3.713-7.357-11.379-15.065-22.994-23.123c-7.306-3.736-12.816-7.708-16.527-11.912
			l-4.312-1.401c-2.875,0-4.312-0.934-4.312-2.803c-5.749-2.452-8.623-4.319-8.623-5.605c-2.636,0-4.792-1.166-6.467-3.503
			l2.874-10.51c0-3.503,3.352-8.173,10.06-14.014v-1.401l-1.437-1.401l-22.276,16.817l-2.875-0.701l-1.437,1.401v0.701l0.719,0.701
			l-2.875,2.803l-6.467-2.102c-24.673-9.81-39.283-14.714-43.833-14.714c-10.54-4.205-16.769-6.307-18.683-6.307h-0.718
			l-0.719,0.701c0-0.815-4.553-1.516-13.653-2.102v1.401l0.719,0.701l29.461,7.708c15.208,2.803,24.549,6.542,28.024,11.211
			c4.671,0.35,10.896,2.688,18.683,7.007l-6.467,11.912c0,1.87-0.718,2.803-2.156,2.803c-9.103,14.014-14.851,21.021-17.246,21.021
			l-1.437,2.803c-2.397,5.723-3.593,11.329-3.593,16.817c-3.116,11.329-8.384,23.473-15.809,36.436c0,3.854-0.48,6.191-1.438,7.007
			c-5.15,4.555-10.181,10.159-15.09,16.816c-5.03,3.854-8.146,8.058-9.341,12.612c-7.186,12.147-11.978,21.256-14.372,27.327
			c-2.875,2.452-4.312,4.321-4.312,5.605c-1.678,0-3.116,1.169-4.312,3.503c-9.583,8.059-14.371,13.432-14.371,16.116
			c-4.312,2.921-6.467,6.424-6.467,10.511c-1.917,0-2.875,0.936-2.875,2.803l-6.467,7.708c-2.397,0-3.593,1.168-3.593,3.503
			c-12.457,15.884-19.881,24.059-22.275,24.524c-4.671,8.058-10.899,13.898-18.683,17.518v0.7l0.719,0.701l2.156-0.701l2.874,0.701
			l0.719-2.103c4.789-1.866,8.143-4.669,10.06-8.408c5.749-1.866,8.623-4.204,8.623-7.007h1.438
			c3.832-5.605,6.467-8.408,7.904-8.408c2.633-5.956,6.706-10.861,12.216-14.715l22.994-23.123
			c6.346-6.656,21.437-26.741,45.27-60.26c6.346-5.255,10.419-10.625,12.216-16.115h0.718v0.7l-0.718,2.103
			c4.07,5.605,8.381,8.408,12.934,8.408l3.593-0.701l5.03-9.108l-0.719-4.204v-0.701l0.719-0.7
			c-4.912-4.319-7.545-7.122-7.904-8.408c-3.354-1.166-5.03-2.102-5.03-2.803l20.839-36.436
			c12.934-13.546,19.401-22.655,19.401-27.327c3.472-1.867,7.545-5.838,12.216-11.912c1.796-2.803,4.19-4.205,7.186-4.205
			c1.915,1.87,5.03,3.739,9.341,5.606c4.43,0.936,7.304,2.337,8.623,4.204c7.186,3.503,12.455,6.774,15.809,9.81l7.904,6.306
			l7.186,12.613l9.341,16.116v9.109l0.719,0.701h-0.719c0,5.491,0.957,11.096,2.875,16.817l-1.438,1.401
			c0,2.337-0.48,3.503-1.438,3.503c-1.796,6.891-4.912,13.43-9.341,19.619c-9.942,8.059-14.972,12.73-15.09,14.015
			c-10.06,8.058-15.09,12.962-15.09,14.714c-8.982,7.476-14.254,11.211-15.809,11.211c-10.779,8.176-22.517,14.482-35.21,18.919
			c-0.601,2.803-6.35,5.841-17.246,9.109l-5.03-0.701c0,0.586-3.354,1.987-10.06,4.204c-7.068,7.476-18.565,11.212-34.492,11.212
			h-8.623l-2.156,1.401h-2.156l-21.557-4.905l-1.437,1.401c2.874,2.803,11.974,5.141,27.306,7.007
			c20.957-1.401,38.202-3.736,51.737-7.007c20.718-9.81,31.976-14.715,33.772-14.715l1.438,1.401l2.874-1.401v0.701l1.438,1.401v0.7
			c2.394-0.35,3.593-1.051,3.593-2.102v-1.401l-0.719-0.701l-2.156,0.701h-0.718l-0.719-0.701h-0.719l-0.718,0.701h-0.719v-1.401
			h3.593l3.593-2.803c3.593-0.233,7.904-1.867,12.935-4.905c5.749-1.634,8.623-3.268,8.623-4.904l4.312-2.803l0.719-0.701
			c4.789-2.452,7.186-4.087,7.186-4.905c4.789-2.452,7.186-4.086,7.186-4.904c3.351-1.166,5.03-2.335,5.03-3.504
			c4.312-3.735,6.467-6.539,6.467-8.408c1.437,0,2.156-0.7,2.156-2.102c7.065-4.204,11.138-8.408,12.215-12.613
			c1.915,0,2.875-0.7,2.875-2.102c2.874-2.918,4.311-5.02,4.311-6.307c4.312-8.759,6.468-14.829,6.468-18.218l-0.719-0.7
			l1.438-1.401v-3.503l-0.719-0.701h0.719l0.718-0.701c0.599-4.086,1.556-6.889,2.875-8.408v-3.503l-0.719-3.503L660.013,171.141z"
			/>
		<polygon fill="#FFFFFF" points="501.208,273.442 500.489,274.143 499.771,273.442 499.052,273.442 499.052,275.544 
			502.645,274.844 502.645,273.442 		"/>
		<path fill="#FFFFFF" d="M482.525,60.432v-0.701l-0.718-0.701l-2.156,0.701l-4.312-0.701h-0.719v1.401l5.749,1.401
			C481.807,61.833,482.525,61.368,482.525,60.432z"/>
		<path fill="#FFFFFF" d="M488.273,276.245c0-0.934,0.958-1.401,2.875-1.401l-1.437-1.401h-9.342v1.401l2.156,0.7l2.156-0.7
			C484.681,275.779,485.876,276.245,488.273,276.245z"/>
		<polygon fill="#FFFFFF" points="514.861,148.719 516.298,147.318 514.861,145.917 514.142,145.917 512.705,147.318 
			514.142,148.719 		"/>
		<polygon fill="#FFFFFF" points="518.454,165.536 520.609,167.638 522.046,166.236 522.046,164.835 520.609,163.434 
			519.891,163.434 518.454,164.835 		"/>
		<polygon fill="#FFFFFF" points="512.705,274.844 507.675,274.143 507.675,276.245 508.394,276.945 512.705,276.245 		"/>
		<path fill="#FFFFFF" d="M524.202,161.332l1.438-1.401v-2.803c0-1.284-1.917-2.217-5.749-2.803l-1.437,2.102v3.503l1.437,1.401
			H524.202z"/>
		<polygon fill="#FFFFFF" points="547.197,198.468 545.759,197.066 544.322,198.468 545.759,200.57 547.197,199.169 		"/>
		<path fill="#FFFFFF" d="M523.484,275.544v-1.401c-1.917,0-2.875-0.7-2.875-2.102h-0.719l-0.718,0.7
			c0,1.401-0.719,2.103-2.156,2.103l1.437,1.401h1.437l0.719-0.701v0.701L523.484,275.544z"/>
		<polygon fill="#FFFFFF" points="537.137,231.4 537.137,229.999 535.699,229.999 533.544,231.4 534.981,232.802 535.699,232.802 		
			"/>
	</g>
	<g>
		<path fill="#FFFFFF" d="M282.621,137.735h0.725c0-3.174-3.624-10.229-10.871-21.163c-9.181-17.988-25.366-31.154-48.557-39.503
			l1.449-1.411l7.972-13.403V61.55l-1.449-1.411h-0.725l-13.045,14.108c-29.958-9.404-47.592-14.108-52.906-14.108
			c-15.826-3.761-28.146-5.643-36.962-5.643l-5.073,0.706l-0.725-0.706c-7.128,1.764-11.233,3.411-12.32,4.938l10.146-1.411h6.523
			l0.725-0.705v0.705l0.725,0.706l4.349-0.706c8.575,0,15.822,1.411,21.742,4.232c13.164,1.411,21.62,3.059,25.366,4.938
			c13.648,3.174,20.896,5.762,21.742,7.76c6.763,2.706,10.146,4.585,10.146,5.644c-1.812,0-2.78,0.942-2.899,2.821
			c-7.853,3.412-14.857,10.7-21.017,21.868c-7.248,7.878-10.871,13.05-10.871,15.519c-4.349,3.059-6.523,5.88-6.523,8.465v0.705
			l0.725,0.706c-1.209,0-1.934,0.942-2.174,2.822l-15.22,24.689l-13.045,31.039c-8.697,11.876-14.495,18.225-17.394,19.046
			c-1.812,6.82-4.229,11.287-7.247,13.403c-6.645,8.936-10.752,13.402-12.321,13.402c-8.215,9.761-12.32,15.638-12.32,17.636
			c-3.383,1.177-5.073,3.059-5.073,5.644l-9.421,16.93l-10.871,14.814c-8.334,12.581-22.829,27.396-43.484,44.44v1.411l0.725,0.705
			c8.94-5.29,16.188-10.934,21.742-16.93c9.181-8.817,13.77-13.756,13.77-14.813c9.784-9.639,15.338-16.225,16.669-19.752
			c4.227-2.585,8.816-7.994,13.77-16.225c4.711-2.703,8.091-5.291,10.146-7.76c0.119-2.584,1.087-4.701,2.899-6.349
			c7.488-8.347,13.526-16.106,18.118-23.278c3.865-3.527,5.798-6.349,5.798-8.466c7.729-8.933,11.596-14.342,11.596-16.225
			c5.073-6.111,9.178-9.639,12.32-10.581l17.394-23.278c0-2.703,1.45-7.407,4.349-14.108c4.711-4.585,7.851-8.581,9.421-11.992
			c3.502,0,6.161-5.644,7.972-16.93l-0.725-0.705h0.725v-1.411c3.864-4.938,5.798-7.994,5.798-9.17
			c4.349-2.938,6.523-5.525,6.523-7.76c3.38-3.408,5.073-5.996,5.073-7.759c3.018-1.527,5.192-5.054,6.522-10.582l7.248-8.465
			c6.16,1.764,10.024,3.646,11.596,5.644c6.642,2.587,12.923,7.291,18.843,14.108c7.609,7.996,14.132,17.401,19.568,28.216v5.644
			c0,2.822-3.383,10.113-10.146,21.868c-19.568,12.229-42.519,18.341-68.85,18.341c-8.456,0-14.979-2.116-19.568-6.349l-1.45,1.411
			v0.705c0,1.058,8.454,6.702,25.366,16.93c16.063,10.934,26.934,21.046,32.613,30.333c6.523,6.938,10.387,15.638,11.596,26.101
			c-1.087,5.762-6.885,14.228-17.394,25.396c-12.442,9.055-18.724,14.227-18.843,15.519l-23.191,14.108
			c-17.153,3.999-28.024,7.292-32.613,9.876c-21.017,5.175-38.895,7.76-53.63,7.76c-3.746-0.234-8.578-2.585-14.495-7.054H78.97
			l-1.45,1.41v0.706c8.213,7.996,20.774,11.992,37.687,11.992c13.164-2.351,29.592-6.35,49.282-11.992
			c14.857-4.232,24.036-8.465,27.54-12.698c7.004-2.469,14.976-7.406,23.917-14.813c22.223-17.988,33.338-31.391,33.338-40.209
			v-0.705l-3.624-16.93l-15.944-23.984l-10.146-9.171c-8.094-3.761-12.926-7.288-14.495-10.581l3.624-0.706h2.899
			c10.025,0,18.237-1.645,24.641-4.938c8.697-2.232,13.045-4.114,13.045-5.644c12.561-5.406,19.084-8.699,19.568-9.876
			c10.024-9.404,15.098-15.753,15.22-19.046C284.07,142.204,283.586,139.617,282.621,137.735z"/>
		<polygon fill="#FFFFFF" points="74.621,309.856 74.621,311.268 75.346,311.973 76.795,310.563 76.795,309.151 76.07,308.446 		"/>
		<path fill="#FFFFFF" d="M17.367,338.778h1.45l2.174-2.116v-0.705C18.816,336.899,17.61,337.839,17.367,338.778z"/>
		<polygon fill="#FFFFFF" points="259.103,205.631 257.653,205.631 255.479,207.747 255.479,208.453 256.204,208.453 		"/>
		<path fill="#FFFFFF" d="M264.901,202.104v-0.706c-1.934,0-3.624,1.177-5.073,3.527
			C263.208,204.221,264.901,203.281,264.901,202.104z"/>
		<polygon fill="#FFFFFF" points="319.98,109.694 319.98,108.989 317.807,108.989 314.183,113.927 314.183,114.632 314.908,115.338 
					"/>
		<path fill="#FFFFFF" d="M419.995,57.494c-7.854,0-20.415,8.702-37.687,26.101c-6.404,6.585-18.481,21.162-36.237,43.736
			c-7.248,9.523-13.529,19.165-18.843,28.922v0.706l0.725,0.706v0.705l-2.174,2.116l-13.77,7.76
			c-7.129,3.527-11.233,6.349-12.321,8.465l-27.54,19.047h1.45c10.146-5.76,15.219-9.052,15.219-9.876l34.063-19.751
			c-13.045,21.163-23.191,35.977-30.439,44.441c-10.268,14.461-16.791,22.691-19.568,24.689
			c-12.08,19.399-23.916,36.329-35.512,50.79v0.705h0.725c11.355-7.288,21.017-12.226,28.989-14.813
			c15.582-6.111,26.694-9.17,33.338-9.17h9.422l-1.45-1.411h-7.247l-11.596,0.705l-26.09,6.349v-0.705
			c6.039-10.11,15.46-22.573,28.265-37.387c32.37-46.321,48.558-71.248,48.558-74.775c11.596-9.404,17.394-14.577,17.394-15.519
			c3.502-0.587,16.547-12.813,39.136-36.682c14.614-17.517,22.829-32.331,24.641-44.441L419.995,57.494z M413.472,65.253
			c-7.491,16.109-12.32,25.042-14.495,26.806c-28.871,31.157-46.264,49.026-52.181,53.612v-0.706l1.45-1.411
			c0.965-5.291,7.729-15.167,20.292-29.628c12.199-17.988,27.178-34.447,44.934-49.379V65.253z"/>
		<path fill="#FFFFFF" d="M267.8,198.577c1.931,0,3.38-0.939,4.348-2.821C270.214,195.756,268.765,196.698,267.8,198.577z"/>
		<polygon fill="#FFFFFF" points="311.284,227.499 311.284,228.205 312.009,228.205 314.908,226.088 314.908,225.383 
			314.183,224.678 		"/>
		<path fill="#FFFFFF" d="M359.334,201.223h0.725v1.41c-5.557,5.528-10.39,12.111-14.495,19.752c-1.934,0-2.899,1.177-2.899,3.527
			c-7.128,6.232-11.958,12.582-14.495,19.046c-3.624,2.822-7.248,8.465-10.871,16.931c-3.143,2.587-5.317,6.114-6.523,10.581
			c25.004-12.697,40.464-19.047,46.383-19.047v0.706c2.174-0.939,5.314-1.411,9.422-1.411h1.449l5.073,0.705v1.411h-4.349
			c-19.449,0-42.881,9.407-70.299,28.217v-0.705c2.174-8.347,9.903-23.16,23.191-44.441c3.986-3.29,8.091-9.405,12.321-18.341
			l0.725-0.706v-0.705l-20.292,7.76v-1.411l22.467-10.581L359.334,201.223z M396.295,145.495c0,5.409-6.522,12.229-19.568,20.457
			c-9.303,5.175-15.825,9.642-19.568,13.403l-4.348,4.232v-0.706c4.951-10.581,14.857-22.336,29.714-35.271L396.295,145.495z"/>
		<path fill="#FFFFFF" d="M342.52,232.261l-2.899,2.116l-0.725-0.705v-0.706l0.725-0.705H342.52z M352.667,225.912l-7.248,5.644
			h-0.725v-0.706C344.694,229.676,347.353,228.028,352.667,225.912z M449.781,162.424l1.449,1.411v1.411
			c-4.592,8.583-8.215,13.993-10.871,16.225l-7.972,11.992c-5.679,7.525-10.268,12.463-13.77,14.813
			c-4.47,4.704-7.369,7.055-8.697,7.055c-1.693,0.942-3.383,3.526-5.073,7.759c-1.933,0.237-2.899,0.943-2.899,2.117l15.944-9.171
			c31.645-17.398,49.282-26.101,52.906-26.101c2.415,1.882,3.624,3.527,3.624,4.938c-8.216,15.871-16.429,27.629-24.641,35.271
			c-11.718,13.756-20.415,26.453-26.091,38.093v0.705l15.22-11.992h0.725c0,0.824-6.282,6.701-18.843,17.636
			c-6.282,14.579-11.114,22.104-14.495,22.573l-1.45-2.821c2.656-5.76,6.039-11.169,10.146-16.225
			c1.206-7.289,8.213-22.337,21.018-45.147c4.83-9.052,7.247-14.695,7.247-16.93h-1.449l-2.174,1.411h-4.349
			c0,1.764-6.282,3.88-18.843,6.349l-19.568,8.465c-7.731,8.937-14.738,18.813-21.018,29.628
			c-4.108,6.819-9.178,11.992-15.219,15.519l-1.45-1.41v-0.706l18.119-25.395c1.449,0,2.174-0.706,2.174-2.116l1.45-1.411
			c0-1.879,0.965-2.821,2.899-2.821c0-1.88,2.174-5.173,6.522-9.876c0.965-3.29,2.899-6.349,5.798-9.171l7.972-9.876
			c0-1.41,2.174-4.7,6.523-9.876c0-1.645,2.174-3.761,6.522-6.349l10.871-12.697v-2.116c-11.839,7.997-20.777,12.935-26.815,14.813
			c0,1.529-4.348,4.586-13.045,9.171c0,0.942-2.658,2.354-7.972,4.232c-1.331,2.821-10.509,7.525-27.54,14.108
			c2.296-2.351,9.543-6.583,21.742-12.697c7.367-6.35,23.07-16.931,47.108-31.744c6.161-4.114,11.474-6.702,15.944-7.76V172.3
			c4.711-1.998,8.575-5.291,11.596-9.876H449.781z M451.955,246.369h1.45c-2.174,3.293-4.592,4.938-7.248,4.938L451.955,246.369z
			 M476.596,235.082c-2.78,2.116-9.784,5.644-21.017,10.582v-1.411C467.053,238.141,474.06,235.082,476.596,235.082z
			 M476.596,228.733l0.725,0.706v0.705l-0.725,0.705h-1.449v-0.705L476.596,228.733z M488.192,186.409h0.725l1.449,1.411
			l-0.725,0.706h-0.725l-0.725-0.706V186.409z M491.091,231.556h1.449v1.41l-2.899,0.706v-0.706L491.091,231.556z"/>
	</g>
</g>
</svg>
